Coordinates
version=1
nRows=5
nColumns=63
inDegrees=yes

Units are S.I. units (second, meters, Newtons, ...)
If the header above contains a line with 'inDegrees', this indicates whether rotational values are in degrees (yes) or radians (no).

endheader
time	pelvis_tilt	pelvis_list	pelvis_rotation	pelvis_tx	pelvis_ty	pelvis_tz	hip_flexion_r	hip_adduction_r	hip_rotation_r	knee_angle_r	knee_angle_r_beta	ankle_angle_r	subtalar_angle_r	mtp_angle_r	hip_flexion_l	hip_adduction_l	hip_rotation_l	knee_angle_l	knee_angle_l_beta	ankle_angle_l	subtalar_angle_l	mtp_angle_l	L5_S1_Flex_Ext	L5_S1_Lat_Bending	L5_S1_axial_rotation	L4_L5_Flex_Ext	L4_L5_Lat_Bending	L4_L5_axial_rotation	L3_L4_Flex_Ext	L3_L4_Lat_Bending	L3_L4_axial_rotation	L2_L3_Flex_Ext	L2_L3_Lat_Bending	L2_L3_axial_rotation	L1_L2_Flex_Ext	L1_L2_Lat_Bending	L1_L2_axial_rotation	L1_T12_Flex_Ext	L1_T12_Lat_Bending	L1_T12_axial_rotation	Abs_r3	Abs_r2	Abs_r1	Abs_t1	Abs_t2	neck_flexion	neck_bending	neck_rotation	arm_flex_r	arm_add_r	arm_rot_r	elbow_flex_r	pro_sup_r	wrist_flex_r	wrist_dev_r	arm_flex_l	arm_add_l	arm_rot_l	elbow_flex_l	pro_sup_l	wrist_flex_l	wrist_dev_l
      0.00000000	      0.52498058	     -4.22976425	     84.57575661	      0.19975783	      0.84385169	      0.61356719	     -3.22549462	     -1.25727460	     -6.36893645	     13.39405594	      0.23377038	     37.87153866	      6.83885252	      0.00000000	     -3.67166766	      0.53546046	    -13.62576050	     13.42505373	      0.23431139	     36.53646723	     11.14458814	      0.00000000	      0.10391702	      0.38402755	      0.57675594	      0.19298430	      0.51075664	      0.61280318	      0.17072527	      0.93372458	      0.61280318	      0.11876676	      0.93372458	      0.50466144	      0.09649735	      0.78310898	      0.46861420	      0.05937819	      0.59485867	      0.43256695	      0.74226889	      4.34419644	      3.20774349	      0.00000000	      0.00000000	     24.50476382	      0.98618789	     14.67235809	     18.75503645	     -7.70321530	     86.49432114	     32.38545146	     77.49051524	     11.99198775	     11.53241326	     17.16606165	     11.04868836	    203.01070068	      0.34482384	     20.21252701	    -25.57942435	    -12.68372974
      0.01960784	      0.15678077	     -4.90572685	     85.98296799	      0.19701925	      0.84139514	      0.61744529	     -2.85162802	     -1.69189382	     -8.44261060	     12.99931568	      0.22688086	     38.04106741	      7.90905442	      0.00000000	     -2.81959972	      0.87776252	    -12.47086163	     13.23287892	      0.23095731	     36.88444530	     11.79112592	      0.00000000	      0.13526954	      0.34558956	      0.30117410	      0.25120906	      0.45963411	      0.31999748	      0.22223433	      0.84026645	      0.31999748	      0.15459956	      0.84026645	      0.26352734	      0.12561129	      0.70472622	      0.24470395	      0.07729301	      0.53531822	      0.22588057	      0.96621679	      3.90937818	      1.67503998	      0.00000000	      0.00000000	     25.45381428	      1.35888344	     14.95481429	     15.91102622	     -7.59941829	     78.19674058	     32.71712175	     39.32992716	      4.37577823	     24.58930843	     17.58763579	     10.93288677	    203.49040016	      0.34668129	     17.38321029	    -23.37172318	    -14.80322557
      0.03921569	     -0.15036901	     -5.19605806	     87.15855893	      0.19466634	      0.83986366	      0.62114866	     -2.84056165	     -1.99732558	     -9.45505107	     12.59276356	      0.21978519	     38.02224500	      7.85334172	      0.00000000	     -2.40545862	      1.22335434	    -11.33143173	     12.98806677	      0.22668453	     37.08734748	     12.18745749	      0.00000000	      0.13535958	      0.31055676	      0.04265979	      0.25137628	      0.41304049	      0.04532603	      0.22238226	      0.75508771	      0.04532603	      0.15470247	      0.75508771	      0.03732732	      0.12569491	      0.63328734	      0.03466108	      0.07734447	      0.48105242	      0.03199485	      0.96685997	      3.51308018	      0.23726098	      0.00000000	      0.00000000	     25.69381136	      1.84126180	     15.16210936	     14.79717917	     -7.04757682	     73.17494068	     32.43689313	     38.08052684	      2.80107938	     24.84693164	     17.98971218	     10.77588342	    203.31956396	      0.34550572	     17.65157425	    -22.73697586	    -15.73972631
      0.05882353	     -0.35923126	     -5.39964956	     87.59766940	      0.19295086	      0.83869001	      0.62423462	     -2.81005286	     -2.38403821	    -10.85864570	     12.29192893	      0.21453463	     38.27805092	      9.36159240	      0.00000000	     -2.29496570	      1.62509599	    -10.26608536	     12.43346570	      0.21700491	     36.97543260	     11.70374395	      0.00000000	      0.14464282	      0.29503410	      0.01854837	      0.26861618	      0.39239536	      0.01970764	      0.23763369	      0.71734592	      0.01970764	      0.16531228	      0.71734592	      0.01622982	      0.13431532	      0.60163354	      0.01507055	      0.08264891	      0.45700783	      0.01391128	      1.03316919	      3.33748479	      0.10316045	      0.00000000	      0.00000000	     25.75544572	      1.34923935	     14.46169453	     12.89759353	     -6.72777586	     65.90079468	     33.08601653	     34.20534404	     -1.20326597	     27.85804135	     18.33886066	     10.92047898	    203.63812314	      0.34455650	     19.64699283	    -23.09073074	    -15.68335956
      0.07843137	     -0.39165331	     -5.45909759	     87.61890861	      0.19178639	      0.83802370	      0.62760362	     -2.72280776	     -2.50044593	    -10.82723595	     12.16938686	      0.21239587	     38.32057728	      9.39767454	      0.00000000	     -2.16372004	      1.75271659	    -10.22641657	     12.27731970	      0.21427965	     37.04268255	     11.74650636	      0.00000000	      0.13443439	      0.30389581	      0.00000991	      0.24965811	      0.40418143	      0.00001053	      0.22086227	      0.73889227	      0.00001053	      0.15364507	      0.73889227	      0.00000868	      0.12483578	      0.61970433	      0.00000806	      0.07681581	      0.47073461	      0.00000744	      0.96025143	      3.43773017	      0.00005514	      0.00000000	      0.00000000	     25.59747740	      1.34906947	     14.41392886	     13.12311265	     -6.70580827	     65.76986067	     32.99813636	     34.14108372	     -1.24976496	     27.81195052	     18.67772345	     10.95220459	    203.67285691	      0.32889948	     19.71205408	    -23.12489408	    -15.68780247
